<?xml version="1.0" encoding="UTF-8"?> <svg xmlns="http://www.w3.org/2000/svg" viewBox="0 0 1228.49 213"><g id="Lag_2" data-name="Lag 2"><g id="Lag_1-2" data-name="Lag 1"><path d="M143.1,36.3V0H0V213H41.4V124.8H126V91.2H41.4V36.3Z"></path><path d="M213.59,176.7V0h-41.4V213h150V176.7Z"></path><path d="M444.59,0H408l-81.3,213h42.6l19.5-53.1h74.4L483,213h42.6Zm-48.9,130.8,30.6-83.7,29.4,83.7Z"></path><path d="M510,0V36.3h68.1V213H619.2V36.3h68.09V0Z"></path><path d="M863.84,41.4a70.54,70.54,0,0,0-12.75-20.85A65.44,65.44,0,0,0,831.89,5.7,52.53,52.53,0,0,0,807.59,0h-87.3V213h10.5V130.8h78.6a51.61,51.61,0,0,0,24-5.55,60.28,60.28,0,0,0,18.6-14.7,68.14,68.14,0,0,0,12.15-21,70.37,70.37,0,0,0,4.35-24.45A63.73,63.73,0,0,0,863.84,41.4Zm-9.3,44.25a60,60,0,0,1-9.75,18,48.07,48.07,0,0,1-15.3,12.75,42.55,42.55,0,0,1-20.4,4.8h-78.3V9.6h76.5a42.89,42.89,0,0,1,19.65,4.65,55.16,55.16,0,0,1,16,12.3,59.33,59.33,0,0,1,11,17.7,55.32,55.32,0,0,1,4,20.85A62.79,62.79,0,0,1,854.54,85.65Z"></path><path d="M969.59,0h-9l-91.8,213h11.4l84.9-199.8L1050,213h11.1Z"></path><path d="M1217.09,0l-79.2,120.9L1059.59,0h-11.7l84.9,130.8V213h10.5V131.4L1228.49,0Z"></path></g></g></svg> 